<svg width="0" height="0" class="hidden">
 <symbol xmlns="http://www.w3.org/2000/svg" viewBox="0 0 16 9" id="eye">
      <path fill-rule="evenodd" clip-rule="evenodd" d="M7.52631 8.905C11.5655 8.905 14.9207 4.96112 14.9207 4.96112C15.1831 4.68021 15.1904 4.21628 14.9289 3.93308C14.9289 3.93308 11.7396 0 7.56115 0C3.38267 0 0.193348 3.93308 0.193348 3.93308C-0.0645367 4.21997 -0.065876 4.68561 0.197905 4.96542C0.197905 4.96542 3.48724 8.90498 7.52639 8.90498L7.52631 8.905ZM7.56116 7.59546C9.29193 7.59546 10.695 6.18837 10.695 4.45258C10.695 2.71682 9.29185 1.30971 7.56116 1.30971C5.8303 1.30971 4.42735 2.71688 4.42735 4.45258C4.42735 6.18835 5.83038 7.59546 7.56116 7.59546ZM7.56116 5.84941C8.33038 5.84941 8.95399 5.22406 8.95399 4.45263C8.95399 3.6812 8.3304 3.05576 7.56116 3.05576C6.79193 3.05576 6.16826 3.6812 6.16826 4.45263C6.16826 5.22406 6.79193 5.84941 7.56116 5.84941Z"></path>
  </symbol>
<!-- first aid in home search -->
  <symbol  xmlns="http://www.w3.org/2000/svg" viewBox="0 0 19 22" id="first_aid">
    <path d="M7.53108 0.167725L5.65156 2.49456V4.8214H2.83228C1.75156 4.8214 1.06553 5.98481 0.952763 7.14823L0.0130035 18.7824C-0.0997676 19.9458 0.520473 21.1092 1.89252 21.1092H16.9287C18.3007 21.1092 18.921 19.9458 18.8082 18.7824L17.8684 7.14823C17.7557 5.98481 16.9851 4.8214 15.9889 4.8214H13.1696V2.49456L11.2901 0.167725H7.53108ZM7.53108 2.49456H11.2901V4.8214H7.53108V2.49456ZM8.47083 8.31165H10.3504V11.8019H13.1696V14.1287H10.3504V17.619H8.47083V14.1287H5.65156V11.8019H8.47083V8.31165Z"></path>
  </symbol>
  <!-- Search -->
   <symbol  xmlns="http://www.w3.org/2000/svg" viewBox="0 0 17 22" id="search">
    <path d="M6.10843 0.657959C7.72849 0.657959 9.2822 1.45469 10.4277 2.87288C11.5733 4.29107 12.2169 6.21455 12.2169 8.22018C12.2169 10.0933 11.6624 11.8151 10.7508 13.1414L11.0046 13.4556H11.747L16.4458 19.2726L15.0361 21.0178L10.3373 15.2007V14.2816L10.0836 13.9675C9.01229 15.096 7.62145 15.7824 6.10843 15.7824C4.48838 15.7824 2.93467 14.9857 1.78912 13.5675C0.643565 12.1493 0 10.2258 0 8.22018C0 6.21455 0.643565 4.29107 1.78912 2.87288C2.93467 1.45469 4.48838 0.657959 6.10843 0.657959ZM6.10843 2.9848C3.75904 2.9848 1.87952 5.31163 1.87952 8.22018C1.87952 11.1287 3.75904 13.4556 6.10843 13.4556C8.45783 13.4556 10.3373 11.1287 10.3373 8.22018C10.3373 5.31163 8.45783 2.9848 6.10843 2.9848Z"></path>
  </symbol>
  <!-- Arrow Right -->
  <symbol xmlns="http://www.w3.org/2000/svg" viewBox="0 0 17 17" id="arrow_right">
    <path d="M0.619934 9.67277L0.619934 7.67277H12.6199L7.11993 2.17277L8.53993 0.752773L16.4599 8.67277L8.53993 16.5928L7.11993 15.1728L12.6199 9.67277H0.619934Z" ></path>
  </symbol>
  <!-- Feedback qoutes -->
    <symbol  xmlns="http://www.w3.org/2000/svg" viewBox="0 0 25 22" id="feedback_quotes">
    <path d="M2.65 21.7529C1.43125 21.7529 0.4 20.7217 0.4 19.5029V8.25293C0.4 4.08105 3.775 0.75293 7.9 0.75293H8.275C8.93125 0.75293 9.4 1.22168 9.4 1.87793V4.12793C9.4 4.7373 8.93125 5.25293 8.275 5.25293H7.9C6.25937 5.25293 4.9 6.56543 4.9 8.25293V11.2529H8.65C9.91562 11.2529 10.9 12.2373 10.9 13.5029V19.5029C10.9 20.7217 9.91562 21.7529 8.65 21.7529H2.65ZM16.15 21.7529C14.9312 21.7529 13.9 20.7217 13.9 19.5029V8.25293C13.9 4.08105 17.275 0.75293 21.4 0.75293H21.775C22.4312 0.75293 22.9 1.22168 22.9 1.87793V4.12793C22.9 4.7373 22.4312 5.25293 21.775 5.25293H21.4C19.7594 5.25293 18.4 6.56543 18.4 8.25293V11.2529H22.15C23.4156 11.2529 24.4 12.2373 24.4 13.5029V19.5029C24.4 20.7217 23.4156 21.7529 22.15 21.7529H16.15Z"></path>
  </symbol>
  <!-- Feedback Qoutes Revert -->
  <symbol  xmlns="http://www.w3.org/2000/svg" viewBox="0 0 25 22" id="feedback_quotes_revert">
    <path d="M22.35 21.7529C23.5688 21.7529 24.6 20.7217 24.6 19.5029V8.25293C24.6 4.08105 21.225 0.75293 17.1 0.75293H16.725C16.0688 0.75293 15.6 1.22168 15.6 1.87793V4.12793C15.6 4.7373 16.0688 5.25293 16.725 5.25293H17.1C18.7406 5.25293 20.1 6.56543 20.1 8.25293V11.2529H16.35C15.0844 11.2529 14.1 12.2373 14.1 13.5029V19.5029C14.1 20.7217 15.0844 21.7529 16.35 21.7529H22.35ZM8.85 21.7529C10.0688 21.7529 11.1 20.7217 11.1 19.5029V8.25293C11.1 4.08105 7.725 0.75293 3.6 0.75293H3.225C2.56875 0.75293 2.1 1.22168 2.1 1.87793V4.12793C2.1 4.7373 2.56875 5.25293 3.225 5.25293H3.6C5.24063 5.25293 6.6 6.56543 6.6 8.25293V11.2529H2.85C1.58438 11.2529 0.6 12.2373 0.6 13.5029V19.5029C0.6 20.7217 1.58438 21.7529 2.85 21.7529H8.85Z" ></path>
  </symbol>
  <!-- Plus Icon -->
    <symbol  xmlns="http://www.w3.org/2000/svg" viewBox="0 0 16 16" id="plus_icon">
    <path d="M15.86 7.04133V9.18496C15.86 9.48269 15.7558 9.73576 15.5474 9.94417C15.339 10.1526 15.0859 10.2568 14.7882 10.2568H10.1436V14.9013C10.1436 15.1991 10.0394 15.4521 9.83102 15.6605C9.62261 15.8689 9.36954 15.9731 9.07182 15.9731H6.92818C6.63045 15.9731 6.37739 15.8689 6.16898 15.6605C5.96057 15.4521 5.85636 15.1991 5.85636 14.9013V10.2568H1.21182C0.91409 10.2568 0.661022 10.1526 0.452613 9.94417C0.244204 9.73576 0.139999 9.48269 0.139999 9.18496V7.04133C0.139999 6.7436 0.244204 6.49053 0.452613 6.28212C0.661022 6.07371 0.91409 5.96951 1.21182 5.96951H5.85636V1.32496C5.85636 1.02724 5.96057 0.774168 6.16898 0.565759C6.37739 0.357349 6.63045 0.253145 6.92818 0.253145H9.07182C9.36954 0.253145 9.62261 0.357349 9.83102 0.565759C10.0394 0.774168 10.1436 1.02724 10.1436 1.32496V5.96951H14.7882C15.0859 5.96951 15.339 6.07371 15.5474 6.28212C15.7558 6.49053 15.86 6.7436 15.86 7.04133Z" ></path>
  </symbol>
  <!-- phone -->
    <symbol  xmlns="http://www.w3.org/2000/svg" viewBox="0 0 18 18" id="phone">
    <path d="M3.62 7.79C5.06 10.62 7.38 12.94 10.21 14.38L12.41 12.18C12.69 11.9 13.08 11.82 13.43 11.93C14.55 12.3 15.75 12.5 17 12.5C17.2652 12.5 17.5196 12.6054 17.7071 12.7929C17.8946 12.9804 18 13.2348 18 13.5V17C18 17.2652 17.8946 17.5196 17.7071 17.7071C17.5196 17.8946 17.2652 18 17 18C12.4913 18 8.1673 16.2089 4.97918 13.0208C1.79107 9.8327 0 5.50868 0 1C0 0.734784 0.105357 0.48043 0.292893 0.292893C0.48043 0.105357 0.734784 0 1 0H4.5C4.76522 0 5.01957 0.105357 5.20711 0.292893C5.39464 0.48043 5.5 0.734784 5.5 1C5.5 2.25 5.7 3.45 6.07 4.57C6.18 4.92 6.1 5.31 5.82 5.59L3.62 7.79Z" ></path>
  </symbol>
  <!-- email -->
   <symbol  xmlns="http://www.w3.org/2000/svg" viewBox="0 0 20 16" id="email">
    <path d="M18 4L10 9L2 4V2L10 7L18 2M18 0H2C0.89 0 0 0.89 0 2V14C0 14.5304 0.210714 15.0391 0.585786 15.4142C0.960859 15.7893 1.46957 16 2 16H18C18.5304 16 19.0391 15.7893 19.4142 15.4142C19.7893 15.0391 20 14.5304 20 14V2C20 0.89 19.1 0 18 0Z"></path>
  </symbol>
  <!-- email with check -->
     <symbol xmlns="http://www.w3.org/2000/svg" viewBox="0 0 21 19" id="check-email">
    <path d="M11 15C11 11.69 13.69 9 17 9C18.1 9 19.12 9.3 20 9.81V2C20 0.89 19.1 0 18 0H2C0.89 0 0 0.89 0 2V14C0 15.11 0.9 16 2 16H11.09C11.04 15.67 11 15.34 11 15ZM2 4V2L10 7L18 2V4L10 9L2 4ZM15.75 18.16L13 15.16L14.16 14L15.75 15.59L19.34 12L20.5 13.41L15.75 18.16Z" ></path>
  </symbol>
    <!-- Empty Arrow Right -->
  <symbol  xmlns="http://www.w3.org/2000/svg" viewBox="0 0 96 107" id="empty_arrow_right">
    <path d="M43.3627 0.485347L95.9578 54.123L42.3201 106.718L42.5955 74.8254L0.10956 74.446L0.526866 31.9229L43.05 32.3402L43.3627 0.485347ZM80.0304 53.9667L53.7328 27.1479L53.5765 43.0753L11.0533 42.658L10.8447 63.9196L53.3679 64.3369L53.2115 80.2643L80.0304 53.9667Z" ></path>
  </symbol>
  <!-- List View -->
  <symbol  xmlns="http://www.w3.org/2000/svg" viewBox="0 0 23 23" id="list_view">
    <path d="M10.2222 15.3333H17.8889V17.8889H10.2222V15.3333ZM7.66667 5.11111H5.11111V7.66667H7.66667V5.11111ZM10.2222 12.7778H17.8889V10.2222H10.2222V12.7778ZM10.2222 7.66667H17.8889V5.11111H10.2222V7.66667ZM7.66667 10.2222H5.11111V12.7778H7.66667V10.2222ZM23 2.55556V20.4444C23 21.85 21.85 23 20.4444 23H2.55556C1.15 23 0 21.85 0 20.4444V2.55556C0 1.15 1.15 0 2.55556 0H20.4444C21.85 0 23 1.15 23 2.55556ZM20.4444 2.55556H2.55556V20.4444H20.4444V2.55556ZM7.66667 15.3333H5.11111V17.8889H7.66667V15.3333Z" ></path>
  </symbol>
  <!-- dropdown arrow -->
  <symbol  xmlns="http://www.w3.org/2000/svg" viewBox="0 0 10 5" id="dropdown_arrow">
    <path d="M0 0L5 5L10 0H0Z"></path>
  </symbol>
  <!-- Grid View -->
   <symbol  xmlns="http://www.w3.org/2000/svg" viewBox="0 0 18 18" id="grid_view">
    <path d="M0 8H8V0H0M2 2H6V6H2M10 18H18V10H10M12 12H16V16H12M0 18H8V10H0M2 12H6V16H2M10 0V8H18V0M16 6H12V2H16V6Z"></path>
  </symbol>
  <!-- Heart -->
  <symbol  xmlns="http://www.w3.org/2000/svg" viewBox="0 0 20 19" id="heart">
    <path d="M8.88659 16.9855L8.88587 16.9848C6.30104 14.6409 4.19578 12.7285 2.73088 10.9363C1.27148 9.15079 0.5 7.54582 0.5 5.8252C0.5 3.01193 2.69555 0.825195 5.5 0.825195C7.08885 0.825195 8.62206 1.56742 9.62058 2.73084L10 3.17291L10.3794 2.73084C11.3779 1.56742 12.9112 0.825195 14.5 0.825195C17.3045 0.825195 19.5 3.01193 19.5 5.8252C19.5 7.54582 18.7285 9.15079 17.2691 10.9363C15.8042 12.7285 13.699 14.6409 11.1141 16.9848L11.1134 16.9855L10 17.999L8.88659 16.9855Z"></path>
  </symbol>
  <!-- Empty Heart -->
    <symbol  xmlns="http://www.w3.org/2000/svg" viewBox="0 0 21 20" id="empty_heart">
    <path d="M9.38659 17.4852L9.38587 17.4846C6.80104 15.1406 4.69578 13.2282 3.23088 11.436C1.77148 9.65054 1 8.04557 1 6.32495C1 3.51169 3.19555 1.32495 6 1.32495C7.58885 1.32495 9.12206 2.06718 10.1206 3.23059L10.5 3.67267L10.8794 3.23059C11.8779 2.06718 13.4112 1.32495 15 1.32495C17.8045 1.32495 20 3.51169 20 6.32495C20 8.04557 19.2285 9.65054 17.7691 11.436C16.3042 13.2282 14.199 15.1406 11.6141 17.4846L11.6134 17.4852L10.5 18.4988L9.38659 17.4852Z" ></path>
  </symbol>
<!-- Clock -->
  <symbol  xmlns="http://www.w3.org/2000/svg" viewBox="0 0 15 15" id="clock">
    <path d="M7.5 0C6.51509 0 5.53982 0.193993 4.62987 0.570904C3.71993 0.947814 2.89314 1.50026 2.1967 2.1967C0.790176 3.60322 0 5.51088 0 7.5C0 9.48912 0.790176 11.3968 2.1967 12.8033C2.89314 13.4997 3.71993 14.0522 4.62987 14.4291C5.53982 14.806 6.51509 15 7.5 15C9.48912 15 11.3968 14.2098 12.8033 12.8033C14.2098 11.3968 15 9.48912 15 7.5C15 6.51509 14.806 5.53982 14.4291 4.62987C14.0522 3.71993 13.4997 2.89314 12.8033 2.1967C12.1069 1.50026 11.2801 0.947814 10.3701 0.570904C9.46018 0.193993 8.48491 0 7.5 0ZM10.65 10.65L6.75 8.25V3.75H7.875V7.65L11.25 9.675L10.65 10.65Z"></path>
  </symbol>
  <!-- Arrow Up For Accordion -->
  <symbol xmlns="http://www.w3.org/2000/svg" viewBox="0 0 15 5" id="accordion_arrow_up">
    <path d="M0.757812 5L7.46922 0L14.1806 5H0.757812Z"></path>
  </symbol>
  <!-- Arrow Up For Down -->
    <symbol  xmlns="http://www.w3.org/2000/svg" viewBox="0 0 15 5" id="accordion_arrow_down">
    <path d="M0.757812 0L7.46922 5L14.1806 0H0.757812Z"></path>
  </symbol>
  <!-- Delete  -->
    <symbol  xmlns="http://www.w3.org/2000/svg" viewBox="0 0 15 18" id="delete_icon">
    <path d="M14.3848 1H10.8848L9.88477 0H4.88477L3.88477 1H0.384766V3H14.3848M1.38477 16C1.38477 16.5304 1.59548 17.0391 1.97055 17.4142C2.34562 17.7893 2.85433 18 3.38477 18H11.3848C11.9152 18 12.4239 17.7893 12.799 17.4142C13.1741 17.0391 13.3848 16.5304 13.3848 16V4H1.38477V16Z"></path>
  </symbol>
  <!-- Download -->
    <symbol  xmlns="http://www.w3.org/2000/svg" viewBox="0 0 14 18" id="download">
    <path d="M0 17.5H14V15.5H0M14 6.5H10V0.5H4V6.5H0L7 13.5L14 6.5Z" ></path>
  </symbol>
  <!-- Share -->
    <symbol  xmlns="http://www.w3.org/2000/svg" viewBox="0 0 18 16" id="share">
    <path d="M18 7.5L11 0.5V4.5C4 5.5 1 10.5 0 15.5C2.5 12 6 10.4 11 10.4V14.5L18 7.5Z"></path>
  </symbol>
  <!-- Edit -->
    <symbol  xmlns="http://www.w3.org/2000/svg" viewBox="0 0 19 20" id="edit">
    <path d="M17.71 5.04128C18.1 4.65128 18.1 4.00128 17.71 3.63128L15.37 1.29128C15 0.901279 14.35 0.901279 13.96 1.29128L12.12 3.12128L15.87 6.87128M0 15.2513V19.0013H3.75L14.81 7.93128L11.06 4.18128L0 15.2513Z" ></path>
  </symbol>
</svg>
